<svg width="608" height="575" viewBox="0 0 608 575" fill="none" xmlns="http://www.w3.org/2000/svg">
<mask id="mask0_77_798" style="mask-type:alpha" maskUnits="userSpaceOnUse" x="0" y="-720" width="609" height="1295">
<path fill-rule="evenodd" clip-rule="evenodd" d="M0.000117568 501.059V574.159H158.15V501.059C158.15 467.092 185.686 439.556 219.653 439.556H415.057C521.616 439.556 608 353.172 608 246.612C608 140.053 521.616 53.6691 415.057 53.6691H187.32C171.21 53.6691 158.15 40.6093 158.15 24.4991C158.15 8.38904 171.21 -4.67084 187.32 -4.67084H419.274C523.505 -4.67084 608 -89.1663 608 -193.397C608 -297.627 523.505 -382.123 419.274 -382.123H188.726C171.84 -382.123 158.15 -395.812 158.15 -412.699C158.15 -429.585 171.84 -443.274 188.726 -443.274H388.347C509.658 -443.274 608 -541.616 608 -662.927V-719.159H449.85V-662.927C449.85 -628.96 422.314 -601.425 388.347 -601.425H188.726C84.4956 -601.425 0.000117568 -516.929 0.000117568 -412.699C0.000117568 -308.468 84.4956 -223.973 188.726 -223.973H419.274C436.161 -223.973 449.85 -210.283 449.85 -193.397C449.85 -176.51 436.161 -162.821 419.274 -162.821H187.32C83.8662 -162.821 0.000117568 -78.955 0.000117568 24.4991C0.000117568 127.953 83.8663 211.819 187.32 211.819H415.057C434.272 211.819 449.85 227.397 449.85 246.612C449.85 265.828 434.272 281.405 415.057 281.405H219.653C98.3422 281.405 0.000117568 379.748 0.000117568 501.059Z" fill="url(#paint0_linear_77_798)"/>
</mask>
<g mask="url(#mask0_77_798)">
<g filter="url(#filter0_ii_77_798)">
<path fill-rule="evenodd" clip-rule="evenodd" d="M0.000117568 501.059V574.159H158.15V501.059C158.15 467.092 185.686 439.556 219.653 439.556H415.057C521.616 439.556 608 353.172 608 246.612C608 140.053 521.616 53.6691 415.057 53.6691H187.32C171.21 53.6691 158.15 40.6093 158.15 24.4991C158.15 8.38904 171.21 -4.67084 187.32 -4.67084H419.274C523.505 -4.67084 608 -89.1663 608 -193.397C608 -297.627 523.505 -382.123 419.274 -382.123H188.726C171.84 -382.123 158.15 -395.812 158.15 -412.699C158.15 -429.585 171.84 -443.274 188.726 -443.274H388.347C509.658 -443.274 608 -541.616 608 -662.927V-719.159H449.85V-662.927C449.85 -628.96 422.314 -601.425 388.347 -601.425H188.726C84.4956 -601.425 0.000117568 -516.929 0.000117568 -412.699C0.000117568 -308.468 84.4956 -223.973 188.726 -223.973H419.274C436.161 -223.973 449.85 -210.283 449.85 -193.397C449.85 -176.51 436.161 -162.821 419.274 -162.821H187.32C83.8662 -162.821 0.000117568 -78.955 0.000117568 24.4991C0.000117568 127.953 83.8663 211.819 187.32 211.819H415.057C434.272 211.819 449.85 227.397 449.85 246.612C449.85 265.828 434.272 281.405 415.057 281.405H219.653C98.3422 281.405 0.000117568 379.748 0.000117568 501.059Z" fill="url(#paint1_radial_77_798)"/>
<path fill-rule="evenodd" clip-rule="evenodd" d="M0.000117568 501.059V574.159H158.15V501.059C158.15 467.092 185.686 439.556 219.653 439.556H415.057C521.616 439.556 608 353.172 608 246.612C608 140.053 521.616 53.6691 415.057 53.6691H187.32C171.21 53.6691 158.15 40.6093 158.15 24.4991C158.15 8.38904 171.21 -4.67084 187.32 -4.67084H419.274C523.505 -4.67084 608 -89.1663 608 -193.397C608 -297.627 523.505 -382.123 419.274 -382.123H188.726C171.84 -382.123 158.15 -395.812 158.15 -412.699C158.15 -429.585 171.84 -443.274 188.726 -443.274H388.347C509.658 -443.274 608 -541.616 608 -662.927V-719.159H449.85V-662.927C449.85 -628.96 422.314 -601.425 388.347 -601.425H188.726C84.4956 -601.425 0.000117568 -516.929 0.000117568 -412.699C0.000117568 -308.468 84.4956 -223.973 188.726 -223.973H419.274C436.161 -223.973 449.85 -210.283 449.85 -193.397C449.85 -176.51 436.161 -162.821 419.274 -162.821H187.32C83.8662 -162.821 0.000117568 -78.955 0.000117568 24.4991C0.000117568 127.953 83.8663 211.819 187.32 211.819H415.057C434.272 211.819 449.85 227.397 449.85 246.612C449.85 265.828 434.272 281.405 415.057 281.405H219.653C98.3422 281.405 0.000117568 379.748 0.000117568 501.059Z" fill="black"/>
</g>
</g>
<defs>
<filter id="filter0_ii_77_798" x="-29.0566" y="-719.159" width="678.777" height="1344.17" filterUnits="userSpaceOnUse" color-interpolation-filters="sRGB">
<feFlood flood-opacity="0" result="BackgroundImageFix"/>
<feBlend mode="normal" in="SourceGraphic" in2="BackgroundImageFix" result="shape"/>
<feColorMatrix in="SourceAlpha" type="matrix" values="0 0 0 0 0 0 0 0 0 0 0 0 0 0 0 0 0 0 127 0" result="hardAlpha"/>
<feOffset dx="-29.0567" dy="50.8492"/>
<feGaussianBlur stdDeviation="61.7455"/>
<feComposite in2="hardAlpha" operator="arithmetic" k2="-1" k3="1"/>
<feColorMatrix type="matrix" values="0 0 0 0 1 0 0 0 0 1 0 0 0 0 1 0 0 0 0.87 0"/>
<feBlend mode="lighten" in2="shape" result="effect1_innerShadow_77_798"/>
<feColorMatrix in="SourceAlpha" type="matrix" values="0 0 0 0 0 0 0 0 0 0 0 0 0 0 0 0 0 0 127 0" result="hardAlpha"/>
<feOffset dx="41.7199" dy="24.3366"/>
<feGaussianBlur stdDeviation="24.3366"/>
<feComposite in2="hardAlpha" operator="arithmetic" k2="-1" k3="1"/>
<feColorMatrix type="matrix" values="0 0 0 0 0.168627 0 0 0 0 0.180392 0 0 0 0 0.239216 0 0 0 0.9 0"/>
<feBlend mode="multiply" in2="effect1_innerShadow_77_798" result="effect2_innerShadow_77_798"/>
</filter>
<linearGradient id="paint0_linear_77_798" x1="475" y1="700.167" x2="473.383" y2="-756.498" gradientUnits="userSpaceOnUse">
<stop offset="0.132716" stop-opacity="0"/>
<stop offset="1"/>
</linearGradient>
<radialGradient id="paint1_radial_77_798" cx="0" cy="0" r="1" gradientTransform="matrix(10.544 -460.641 -544.378 -870.901 206.038 679.715)" gradientUnits="userSpaceOnUse">
<stop stop-color="#949494"/>
<stop offset="0.635171" stop-color="#181818"/>
<stop offset="1" stop-color="#1D1D1D"/>
</radialGradient>
</defs>
</svg>
