<svg width="964" height="267" viewBox="0 0 964 267" fill="none" xmlns="http://www.w3.org/2000/svg">
<g opacity="0.6" filter="url(#filter0_ii_77_429)">
<path d="M481.758 247.44C639.049 247.44 808.269 283.568 808.269 362.98C808.269 442.392 639.049 478.52 481.758 478.52C324.466 478.52 155.246 442.393 155.246 362.98C155.246 283.568 324.637 247.44 481.758 247.44ZM481.758 427.226C559.807 427.226 632.743 418.194 687.276 402.005C744.705 384.793 757.145 366.559 757.145 362.98C757.145 359.401 744.705 340.997 687.276 323.955C632.743 307.596 559.807 298.734 481.758 298.734C403.708 298.734 330.772 307.766 276.24 323.956C218.81 341.167 206.37 359.401 206.37 362.98C206.37 366.559 218.81 384.963 276.24 402.005C330.942 418.194 403.879 427.226 481.758 427.226Z" fill="url(#paint0_radial_77_429)"/>
<path d="M481.758 247.44C639.049 247.44 808.269 283.568 808.269 362.98C808.269 442.392 639.049 478.52 481.758 478.52C324.466 478.52 155.246 442.393 155.246 362.98C155.246 283.568 324.637 247.44 481.758 247.44ZM481.758 427.226C559.807 427.226 632.743 418.194 687.276 402.005C744.705 384.793 757.145 366.559 757.145 362.98C757.145 359.401 744.705 340.997 687.276 323.955C632.743 307.596 559.807 298.734 481.758 298.734C403.708 298.734 330.772 307.766 276.24 323.956C218.81 341.167 206.37 359.401 206.37 362.98C206.37 366.559 218.81 384.963 276.24 402.005C330.942 418.194 403.879 427.226 481.758 427.226Z" fill="black"/>
</g>
<g opacity="0.4" filter="url(#filter1_ii_77_429)">
<path d="M481.757 86.2294C543.788 86.2294 602.58 93.5572 647.058 106.849C702.613 123.379 730.731 147.578 730.731 178.593C730.731 209.608 702.613 233.637 647.058 250.337C602.58 263.629 543.958 270.957 481.757 270.957C419.557 270.957 360.935 263.629 316.457 250.337C260.902 233.807 232.784 209.608 232.784 178.593C232.784 147.578 260.902 123.55 316.457 106.849C361.105 93.5572 419.727 86.2294 481.757 86.2294ZM678.755 178.593C674.665 173.822 659.668 162.915 622.859 153.202C584.176 142.977 534.074 137.353 481.757 137.353C429.441 137.353 379.339 142.977 340.655 153.202C303.846 162.915 288.85 173.822 284.76 178.593C288.85 183.365 303.846 194.271 340.655 203.985C379.339 214.21 429.441 219.833 481.757 219.833C534.074 219.833 584.176 214.21 622.859 203.985C659.668 194.101 674.835 183.365 678.755 178.593Z" fill="url(#paint1_radial_77_429)"/>
<path d="M481.757 86.2294C543.788 86.2294 602.58 93.5572 647.058 106.849C702.613 123.379 730.731 147.578 730.731 178.593C730.731 209.608 702.613 233.637 647.058 250.337C602.58 263.629 543.958 270.957 481.757 270.957C419.557 270.957 360.935 263.629 316.457 250.337C260.902 233.807 232.784 209.608 232.784 178.593C232.784 147.578 260.902 123.55 316.457 106.849C361.105 93.5572 419.727 86.2294 481.757 86.2294ZM678.755 178.593C674.665 173.822 659.668 162.915 622.859 153.202C584.176 142.977 534.074 137.353 481.757 137.353C429.441 137.353 379.339 142.977 340.655 153.202C303.846 162.915 288.85 173.822 284.76 178.593C288.85 183.365 303.846 194.271 340.655 203.985C379.339 214.21 429.441 219.833 481.757 219.833C534.074 219.833 584.176 214.21 622.859 203.985C659.668 194.101 674.835 183.365 678.755 178.593Z" fill="black"/>
</g>
<g opacity="0.2" filter="url(#filter2_ii_77_429)">
<path d="M481.757 0.000182819C523.167 0.000179199 562.192 4.94212 592.185 13.8036C632.573 25.9029 653.022 44.478 653.022 69.0174C653.022 93.5569 632.573 112.302 592.185 124.231C562.362 133.093 523.167 138.035 481.757 138.035C440.347 138.035 401.322 133.093 371.33 124.231C330.942 112.132 310.492 93.5569 310.492 69.0174C310.492 44.478 330.942 25.7325 371.33 13.8036C401.322 4.94213 440.517 0.000186424 481.757 0.000182819ZM594.741 69.1878C577.529 61.008 538.334 51.1241 481.757 51.1241C425.18 51.1241 385.985 61.008 368.773 69.1878C385.985 77.3676 425.18 87.2516 481.757 87.2516C538.334 87.2516 577.529 77.1972 594.741 69.1878Z" fill="url(#paint2_radial_77_429)"/>
<path d="M481.757 0.000182819C523.167 0.000179199 562.192 4.94212 592.185 13.8036C632.573 25.9029 653.022 44.478 653.022 69.0174C653.022 93.5569 632.573 112.302 592.185 124.231C562.362 133.093 523.167 138.035 481.757 138.035C440.347 138.035 401.322 133.093 371.33 124.231C330.942 112.132 310.492 93.5569 310.492 69.0174C310.492 44.478 330.942 25.7325 371.33 13.8036C401.322 4.94213 440.517 0.000186424 481.757 0.000182819ZM594.741 69.1878C577.529 61.008 538.334 51.1241 481.757 51.1241C425.18 51.1241 385.985 61.008 368.773 69.1878C385.985 77.3676 425.18 87.2516 481.757 87.2516C538.334 87.2516 577.529 77.1972 594.741 69.1878Z" fill="black"/>
</g>
<defs>
<filter id="filter0_ii_77_429" x="126.19" y="247.44" width="723.799" height="281.929" filterUnits="userSpaceOnUse" color-interpolation-filters="sRGB">
<feFlood flood-opacity="0" result="BackgroundImageFix"/>
<feBlend mode="normal" in="SourceGraphic" in2="BackgroundImageFix" result="shape"/>
<feColorMatrix in="SourceAlpha" type="matrix" values="0 0 0 0 0 0 0 0 0 0 0 0 0 0 0 0 0 0 127 0" result="hardAlpha"/>
<feOffset dx="-29.0567" dy="50.8492"/>
<feGaussianBlur stdDeviation="61.7455"/>
<feComposite in2="hardAlpha" operator="arithmetic" k2="-1" k3="1"/>
<feColorMatrix type="matrix" values="0 0 0 0 1 0 0 0 0 1 0 0 0 0 1 0 0 0 0.87 0"/>
<feBlend mode="lighten" in2="shape" result="effect1_innerShadow_77_429"/>
<feColorMatrix in="SourceAlpha" type="matrix" values="0 0 0 0 0 0 0 0 0 0 0 0 0 0 0 0 0 0 127 0" result="hardAlpha"/>
<feOffset dx="41.7199" dy="24.3366"/>
<feGaussianBlur stdDeviation="24.3366"/>
<feComposite in2="hardAlpha" operator="arithmetic" k2="-1" k3="1"/>
<feColorMatrix type="matrix" values="0 0 0 0 0.168627 0 0 0 0 0.180392 0 0 0 0 0.239216 0 0 0 0.9 0"/>
<feBlend mode="multiply" in2="effect1_innerShadow_77_429" result="effect2_innerShadow_77_429"/>
</filter>
<filter id="filter1_ii_77_429" x="203.727" y="86.2295" width="568.723" height="235.577" filterUnits="userSpaceOnUse" color-interpolation-filters="sRGB">
<feFlood flood-opacity="0" result="BackgroundImageFix"/>
<feBlend mode="normal" in="SourceGraphic" in2="BackgroundImageFix" result="shape"/>
<feColorMatrix in="SourceAlpha" type="matrix" values="0 0 0 0 0 0 0 0 0 0 0 0 0 0 0 0 0 0 127 0" result="hardAlpha"/>
<feOffset dx="-29.0567" dy="50.8492"/>
<feGaussianBlur stdDeviation="61.7455"/>
<feComposite in2="hardAlpha" operator="arithmetic" k2="-1" k3="1"/>
<feColorMatrix type="matrix" values="0 0 0 0 1 0 0 0 0 1 0 0 0 0 1 0 0 0 0.87 0"/>
<feBlend mode="lighten" in2="shape" result="effect1_innerShadow_77_429"/>
<feColorMatrix in="SourceAlpha" type="matrix" values="0 0 0 0 0 0 0 0 0 0 0 0 0 0 0 0 0 0 127 0" result="hardAlpha"/>
<feOffset dx="41.7199" dy="24.3366"/>
<feGaussianBlur stdDeviation="24.3366"/>
<feComposite in2="hardAlpha" operator="arithmetic" k2="-1" k3="1"/>
<feColorMatrix type="matrix" values="0 0 0 0 0.168627 0 0 0 0 0.180392 0 0 0 0 0.239216 0 0 0 0.9 0"/>
<feBlend mode="multiply" in2="effect1_innerShadow_77_429" result="effect2_innerShadow_77_429"/>
</filter>
<filter id="filter2_ii_77_429" x="281.435" y="0" width="413.307" height="188.884" filterUnits="userSpaceOnUse" color-interpolation-filters="sRGB">
<feFlood flood-opacity="0" result="BackgroundImageFix"/>
<feBlend mode="normal" in="SourceGraphic" in2="BackgroundImageFix" result="shape"/>
<feColorMatrix in="SourceAlpha" type="matrix" values="0 0 0 0 0 0 0 0 0 0 0 0 0 0 0 0 0 0 127 0" result="hardAlpha"/>
<feOffset dx="-29.0567" dy="50.8492"/>
<feGaussianBlur stdDeviation="61.7455"/>
<feComposite in2="hardAlpha" operator="arithmetic" k2="-1" k3="1"/>
<feColorMatrix type="matrix" values="0 0 0 0 1 0 0 0 0 1 0 0 0 0 1 0 0 0 0.87 0"/>
<feBlend mode="lighten" in2="shape" result="effect1_innerShadow_77_429"/>
<feColorMatrix in="SourceAlpha" type="matrix" values="0 0 0 0 0 0 0 0 0 0 0 0 0 0 0 0 0 0 127 0" result="hardAlpha"/>
<feOffset dx="41.7199" dy="24.3366"/>
<feGaussianBlur stdDeviation="24.3366"/>
<feComposite in2="hardAlpha" operator="arithmetic" k2="-1" k3="1"/>
<feColorMatrix type="matrix" values="0 0 0 0 0.168627 0 0 0 0 0.180392 0 0 0 0 0.239216 0 0 0 0.9 0"/>
<feBlend mode="multiply" in2="effect1_innerShadow_77_429" result="effect2_innerShadow_77_429"/>
</filter>
<radialGradient id="paint0_radial_77_429" cx="0" cy="0" r="1" gradientTransform="matrix(-11.3248 -82.3038 584.689 -155.606 586.974 497.38)" gradientUnits="userSpaceOnUse">
<stop stop-color="#949494"/>
<stop offset="0.635171" stop-color="#181818"/>
<stop offset="1" stop-color="#1D1D1D"/>
</radialGradient>
<radialGradient id="paint1_radial_77_429" cx="0" cy="0" r="1" gradientTransform="matrix(-8.63543 -65.7945 445.841 -124.393 561.987 286.034)" gradientUnits="userSpaceOnUse">
<stop stop-color="#949494"/>
<stop offset="0.635171" stop-color="#181818"/>
<stop offset="1" stop-color="#1D1D1D"/>
</radialGradient>
<radialGradient id="paint2_radial_77_429" cx="0" cy="0" r="1" gradientTransform="matrix(-5.94018 -49.1638 306.687 -92.9504 536.946 149.3)" gradientUnits="userSpaceOnUse">
<stop stop-color="#949494"/>
<stop offset="0.635171" stop-color="#181818"/>
<stop offset="1" stop-color="#1D1D1D"/>
</radialGradient>
</defs>
</svg>
